<?xml version="1.0" encoding="UTF-8"?>
<svg version="1.1" xmlns="http://www.w3.org/2000/svg" width="1060" height="426">
<path d="M0 0 C3.94209538 1.31403179 4.30057532 2.78856653 6.30078125 6.37890625 C7.2609314 8.08361084 7.2609314 8.08361084 8.24047852 9.82275391 C8.93115234 11.06933594 9.62182617 12.31591797 10.3125 13.5625 C11.39580309 15.49299809 12.48243567 17.42159887 13.56907654 19.35021973 C14.30759806 20.66170266 15.04502577 21.97380211 15.78138733 23.28649902 C19.14080414 29.27251309 22.58882046 35.20460272 26.0625 41.125 C31.67204544 50.71068776 37.25522251 60.31127273 42.77929688 69.9465332 C45.40231631 74.52040589 48.02848904 79.08410136 50.79296875 83.57421875 C51.18564941 84.22245605 51.57833008 84.87069336 51.98291016 85.53857422 C52.96651365 87.15478024 53.96861593 88.75969129 54.97265625 90.36328125 C56 93 56 93 55.21191406 95.39550781 C54.10697404 97.77010495 52.93990606 100.03782255 51.63671875 102.30859375 C51.16919189 103.12585938 50.70166504 103.943125 50.2199707 104.78515625 C49.71425537 105.66042969 49.20854004 106.53570312 48.6875 107.4375 C48.15406982 108.365625 47.62063965 109.29375 47.07104492 110.25 C42.30003889 118.52875051 37.44113233 126.75470515 32.56640625 134.97265625 C29.9360827 139.4103462 27.32116655 143.85678745 24.71484375 148.30859375 C24.34514969 148.94000275 23.97545563 149.57141174 23.59455872 150.22195435 C22.12925662 152.72518124 20.66426072 155.22858506 19.20083618 157.73291016 C15.25149523 164.49119092 11.27355562 171.23060707 7.24121094 177.93969727 C6.83063446 178.62338631 6.42005798 179.30707535 5.99703979 180.01148224 C4.99830121 181.67448649 3.99919019 183.33726705 3 185 C4.30497437 184.95035095 5.60994873 184.9007019 6.95446777 184.84954834 C19.30995572 184.39811078 31.66137392 184.09737861 44.02420807 183.94041061 C50.38020386 183.85496227 56.7261149 183.71835247 63.07763672 183.46044922 C105.41595666 181.79575078 105.41595666 181.79575078 113.79803467 188.64660645 C119.71580543 194.69066116 122.39502513 202.35597124 124.76351929 210.34307861 C126.84351458 216.49471462 130.23176105 221.73579118 133.625 227.25 C134.87296316 229.39769597 136.11587942 231.54834024 137.3515625 233.703125 C141.4600513 240.80178985 145.59547413 247.88463314 149.7331543 254.96630859 C155.8994513 265.52647084 162.00505039 276.12142546 168.10888672 286.71777344 C171.23680146 292.14659938 174.36853731 297.57322007 177.5 303 C181.26363919 309.52233275 185.02644622 316.04513762 188.78515625 322.5703125 C195.63472792 334.45791858 202.50891959 346.33041168 209.43383789 358.17431641 C210.49039157 359.98173238 211.54559275 361.78994001 212.59912109 363.59912109 C213.48708705 365.12095051 214.38004594 366.63988659 215.27978516 368.15478516 C218 372.78141426 218 372.78141426 218 375 C182.03 375 146.06 375 109 375 C103.72 365.76 98.44 356.52 93 347 C87.02741445 336.92109721 87.02741445 336.92109721 81.0390625 326.8515625 C78.19809919 322.05821912 75.40504575 317.24073754 72.6484375 312.3984375 C72.10923676 311.4513089 72.10923676 311.4513089 71.55914307 310.48504639 C69.83412566 307.45111236 68.11486919 304.41404823 66.40234375 301.37304688 C62.83483702 295.07242948 59.13182131 288.94775391 55 283 C54.67427002 283.60658447 54.34854004 284.21316895 54.01293945 284.83813477 C47.49688688 296.95756065 40.89974893 309.02143484 34.09790039 320.98291016 C28.92456216 330.09522455 23.86422509 339.26820906 18.8190918 348.4519043 C13.93499822 357.33453132 8.97046964 366.16360953 4 375 C-67.94 375 -139.88 375 -214 375 C-212.56386092 370.69158276 -211.47293907 367.78934128 -209.234375 364.04296875 C-208.68136719 363.10839844 -208.12835938 362.17382812 -207.55859375 361.2109375 C-206.66333984 359.71433594 -206.66333984 359.71433594 -205.75 358.1875 C-200.72263419 349.68365348 -195.79726535 341.13575761 -191 332.5 C-185.79976833 323.15406261 -180.48363802 313.88411522 -175.05664062 304.66796875 C-170.25664647 296.50272961 -165.64725721 288.2617906 -161 280 C-126.35 279.67 -91.7 279.34 -56 279 C-61.28 270.09 -66.56 261.18 -72 252 C-78.9375 240.125 -78.9375 240.125 -82.3359375 234.2890625 C-86.19356037 227.66471067 -90.05992336 221.0455046 -93.93289185 214.43011475 C-94.67542712 213.16137543 -95.41752593 211.89238056 -96.15914917 210.62310791 C-96.86266308 209.41914385 -97.56674423 208.21551105 -98.2714386 207.01223755 C-99.25401428 205.3344269 -100.23470425 203.65551237 -101.21533203 201.9765625 C-102.76169391 199.39745936 -104.38547989 196.90353802 -106.05859375 194.40625 C-108 191 -108 191 -107.81054688 189.14331055 C-106.76303827 186.37340752 -105.41696348 183.88722459 -103.97265625 181.30078125 C-103.35076416 180.18324463 -102.72887207 179.06570801 -102.08813477 177.91430664 C-101.41317745 176.71356146 -100.73796 175.51296247 -100.0625 174.3125 C-99.36953953 173.07358182 -98.67675096 171.83456748 -97.98413086 170.59545898 C-94.04115427 163.55622531 -90.0346586 156.55804175 -85.90917969 149.62402344 C-81.9638632 142.98247448 -78.13780476 136.27358277 -74.3125 129.5625 C-69.0662026 120.36067193 -63.80071827 111.17064961 -58.5 102 C-52.94267871 92.38494042 -47.42579885 82.74742069 -41.92538452 73.09976196 C-37.26831879 64.93443255 -32.56328011 56.79868517 -27.8125 48.6875 C-21.5723419 38.03206055 -15.4848823 27.29476407 -9.42919922 16.53369141 C-6.31209263 11.0076695 -3.15700569 5.50329995 0 0 Z M0 189 C-1.47244667 190.96783053 -1.47244667 190.96783053 -2.94921875 193.5546875 C-3.54234863 194.54879639 -4.13547852 195.54290527 -4.74658203 196.56713867 C-5.70733643 198.20453003 -5.70733643 198.20453003 -6.6875 199.875 C-7.68692627 201.5597644 -7.68692627 201.5597644 -8.70654297 203.27856445 C-14.04641897 212.29345085 -19.28280809 221.36888565 -24.50146484 230.4543457 C-28.55929426 237.51803381 -32.6612889 244.55328998 -36.8125 251.5625 C-37.60297729 252.89740479 -37.60297729 252.89740479 -38.40942383 254.25927734 C-40.44861214 257.70038767 -42.4897869 261.14031696 -44.53125 264.58007812 C-45.96029485 266.98973057 -47.3866457 269.40095871 -48.8125 271.8125 C-49.23958252 272.53058838 -49.66666504 273.24867676 -50.10668945 273.98852539 C-52.10665024 276.81856957 -52.10665024 276.81856957 -53 280 C-17.69 280 17.62 280 54 280 C52.49877006 276.24692515 51.02264097 273.12276361 49.015625 269.66796875 C48.41741943 268.63462402 47.81921387 267.6012793 47.20288086 266.53662109 C46.55843018 265.43141113 45.91397949 264.32620117 45.25 263.1875 C44.57338299 262.02180155 43.89703627 260.85594617 43.22094727 259.68994141 C41.48565246 256.69938419 39.74615498 253.71129784 38.00494385 250.72418213 C37.05268174 249.09038605 36.10126717 247.45609607 35.14990234 245.82177734 C31.69373608 239.88475177 28.23086226 233.95167189 24.76464844 228.02050781 C21.69444751 222.76531607 18.62875509 217.50749465 15.5625 212.25 C13.11262358 208.05000134 13.11262358 208.05000134 10.65673828 203.85351562 C9.45755726 201.78808271 8.27582142 199.71248848 7.10498047 197.63085938 C6.48123535 196.53064453 5.85749023 195.43042969 5.21484375 194.296875 C4.64757568 193.28463867 4.08030762 192.27240234 3.49584961 191.22949219 C3.00221924 190.49375977 2.50858887 189.75802734 2 189 C1.34 189 0.68 189 0 189 Z " fill="#FEB000" transform="translate(528,0)"/>
<path d="M0 0 C35.97 0 71.94 0 109 0 C114.28 9.24 119.56 18.48 125 28 C132.87185426 41.67895986 140.77139048 55.33968085 148.7331543 68.96630859 C154.8994513 79.52647084 161.00505039 90.12142546 167.10888672 100.71777344 C170.23680146 106.14659938 173.36853731 111.57322007 176.5 117 C180.26363919 123.52233275 184.02644622 130.04513762 187.78515625 136.5703125 C194.63472792 148.45791858 201.50891959 160.33041168 208.43383789 172.17431641 C209.49039157 173.98173238 210.54559275 175.78994001 211.59912109 177.59912109 C212.48708705 179.12095051 213.38004594 180.63988659 214.27978516 182.15478516 C217 186.78141426 217 186.78141426 217 189 C181.03 189 145.06 189 108 189 C102.72 179.76 97.44 170.52 92 161 C86.01045687 150.89259391 86.01045687 150.89259391 80.0078125 140.79296875 C75.8887049 133.84159737 71.87106735 126.83501313 67.875 119.8125 C61.23153897 108.1382599 54.49998753 96.51837049 47.71337891 84.92675781 C39.30533671 70.56431697 30.93968643 56.17833949 22.63208008 41.75756836 C18.19235204 34.0552645 13.72983391 26.36654514 9.25 18.6875 C8.66541016 17.68525391 8.08082031 16.68300781 7.47851562 15.65039062 C4.47214523 10.47477816 4.47214523 10.47477816 1.32324219 5.38598633 C0 3 0 3 0 0 Z " fill="#FE5A00" transform="translate(529,186)"/>
<path d="M0 0 C3.94209538 1.31403179 4.30057532 2.78856653 6.30078125 6.37890625 C6.94088135 7.51537598 7.58098145 8.6518457 8.24047852 9.82275391 C8.93115234 11.06933594 9.62182617 12.31591797 10.3125 13.5625 C11.39580309 15.49299809 12.48243567 17.42159887 13.56907654 19.35021973 C14.30759806 20.66170266 15.04502577 21.97380211 15.78138733 23.28649902 C19.14080414 29.27251309 22.58882046 35.20460272 26.0625 41.125 C31.67204544 50.71068776 37.25522251 60.31127273 42.77929688 69.9465332 C45.40231631 74.52040589 48.02848904 79.08410136 50.79296875 83.57421875 C51.18564941 84.22245605 51.57833008 84.87069336 51.98291016 85.53857422 C52.96651365 87.15478024 53.96861593 88.75969129 54.97265625 90.36328125 C56 93 56 93 55.21191406 95.39550781 C54.10697404 97.77010495 52.93990606 100.03782255 51.63671875 102.30859375 C51.16919189 103.12585938 50.70166504 103.943125 50.2199707 104.78515625 C49.71425537 105.66042969 49.20854004 106.53570312 48.6875 107.4375 C48.15406982 108.365625 47.62063965 109.29375 47.07104492 110.25 C42.83857674 117.59426824 38.54225173 124.90017211 34.21630859 132.18969727 C31.0414241 137.53975728 27.88473632 142.89979037 24.75 148.2734375 C10.95679951 171.9080812 10.95679951 171.9080812 4.17578125 182.4453125 C1.81116763 186.20802671 -0.26606783 190.11981474 -2.37768555 194.02832031 C-5.18607942 199.17260476 -8.12759441 204.23965755 -11.0625 209.3125 C-11.71879395 210.44840576 -12.37508789 211.58431152 -13.05126953 212.75463867 C-17.63014567 220.67098185 -22.25755013 228.55794586 -26.92382812 236.4230957 C-30.11715896 241.80671145 -33.29176711 247.2007607 -36.44921875 252.60546875 C-36.83148621 253.25941116 -37.21375366 253.91335358 -37.60760498 254.58711243 C-39.89424774 258.49909403 -39.89424774 258.49909403 -42.17718506 262.41323853 C-43.23240988 264.22434767 -44.28985705 266.0341436 -45.34765625 267.84375 C-45.95617432 268.88724609 -46.56469238 269.93074219 -47.19165039 271.00585938 C-49.04345484 274.07194954 -50.99141758 277.03514745 -53 280 C-56.60133119 278.56743953 -57.88340358 277.03368913 -59.70703125 273.65234375 C-60.20315918 272.7502417 -60.69928711 271.84813965 -61.21044922 270.91870117 C-61.73912598 269.93490479 -62.26780273 268.9511084 -62.8125 267.9375 C-63.9748799 265.82647881 -65.14035476 263.71715942 -66.30859375 261.609375 C-66.91429199 260.51560547 -67.51999023 259.42183594 -68.14404297 258.29492188 C-71.11177115 253.02624791 -74.24003816 247.85784752 -77.375 242.6875 C-83.32863399 232.84491086 -89.1240708 222.92276378 -94.83154297 212.93579102 C-98.65524637 206.26199815 -102.60021686 199.71467562 -106.875 193.3203125 C-108.25160046 190.48107406 -108.00398362 189.92288 -107 187 C-106.03777766 185.07608449 -105.02143357 183.17891566 -103.97265625 181.30078125 C-103.35076416 180.18324463 -102.72887207 179.06570801 -102.08813477 177.91430664 C-101.41317745 176.71356146 -100.73796 175.51296247 -100.0625 174.3125 C-99.36953953 173.07358182 -98.67675096 171.83456748 -97.98413086 170.59545898 C-94.04115427 163.55622531 -90.0346586 156.55804175 -85.90917969 149.62402344 C-81.9638632 142.98247448 -78.13780476 136.27358277 -74.3125 129.5625 C-69.0662026 120.36067193 -63.80071827 111.17064961 -58.5 102 C-52.94267871 92.38494042 -47.42579885 82.74742069 -41.92538452 73.09976196 C-37.26831879 64.93443255 -32.56328011 56.79868517 -27.8125 48.6875 C-21.5723419 38.03206055 -15.4848823 27.29476407 -9.42919922 16.53369141 C-6.31209263 11.0076695 -3.15700569 5.50329995 0 0 Z " fill="#0DB600" transform="translate(528,0)"/>
</svg>
